<svg width="23" height="21" viewBox="0 0 23 21" fill="none" xmlns="http://www.w3.org/2000/svg">
<path fill-rule="evenodd" clip-rule="evenodd" d="M19.3145 20.9786C14.1049 21.0071 8.89518 21.0071 3.68551 20.9786C2.80735 20.8598 2.04075 20.5273 1.38574 19.9812C0.64984 19.3475 0.200048 18.5716 0.036389 17.6538C-0.00233157 13.0064 -0.0101461 8.3588 0.012922 3.71094C0.0892132 2.65285 0.546819 1.76266 1.38574 1.04036C2.12849 0.419728 3.00459 0.0765193 4.01404 0.0107306C9.0047 -0.00357687 13.9953 -0.00357687 18.986 0.0107306C19.9955 0.0765193 20.8716 0.419728 21.6143 1.04036C22.4532 1.76266 22.9108 2.65285 22.9871 3.71094C23.0101 8.3588 23.0024 13.0064 22.9636 17.6538C22.6837 19.0496 21.8506 20.0614 20.4644 20.689C20.0957 20.831 19.7123 20.9276 19.3145 20.9786ZM17.3668 5.9847C17.7108 5.96835 17.926 6.11134 18.0121 6.41371C18.0278 6.52096 18.0278 6.62821 18.0121 6.73547C17.3501 9.5966 16.6853 12.4567 16.0174 15.3157C15.8869 15.706 15.6092 15.8383 15.1843 15.7125C15.1061 15.6767 15.0279 15.641 14.9497 15.6053C13.393 14.5506 11.8364 13.496 10.2797 12.4413C12.1207 10.9402 13.955 9.43147 15.7827 7.91524C15.8332 7.85698 15.8293 7.80336 15.771 7.75436C15.685 7.74006 15.5989 7.74006 15.5129 7.75436C15.4354 7.78978 15.3571 7.82554 15.2782 7.86162C13.0598 9.14931 10.8382 10.4328 8.61357 11.712C7.63057 11.423 6.64495 11.1405 5.65673 10.8647C5.51842 10.8195 5.40108 10.748 5.30473 10.6502C5.24611 10.5527 5.25 10.4562 5.31646 10.3606C5.45461 10.2456 5.60715 10.1491 5.77407 10.071C9.64415 8.71301 13.5084 7.3509 17.3668 5.9847ZM15.5833 7.85089C15.6138 7.8993 15.5982 7.93862 15.5363 7.96887C13.6015 9.41056 11.6772 10.862 9.76346 12.3233C9.86599 13.2761 9.95985 14.2306 10.0451 15.187C9.83475 15.1914 9.71352 15.0984 9.68132 14.9081C9.38942 13.9453 9.11563 12.98 8.85998 12.0123C11.09 10.6056 13.3311 9.21845 15.5833 7.85089ZM10.2328 12.7416C10.7913 13.0935 11.3545 13.4403 11.9224 13.782C11.4689 14.1536 11.0308 14.5397 10.6083 14.9403C10.5129 15.0214 10.4073 15.0893 10.2915 15.1441C10.2719 14.3425 10.2523 13.5416 10.2328 12.7416Z" fill="#296986"/>
</svg>
