<svg width="60" height="60" viewBox="0 0 60 60" fill="none" xmlns="http://www.w3.org/2000/svg">
<path fill-rule="evenodd" clip-rule="evenodd" d="M24.445 52.5H35.555C43.3575 52.5 47.26 52.5 50.0625 50.6625C51.2721 49.8703 52.3136 48.8475 53.1275 47.6525C55 44.9025 55 41.07 55 33.41C55 25.75 55 21.9175 53.1275 19.1675C52.3136 17.9725 51.2721 16.9496 50.0625 16.1575C48.2625 14.975 46.0075 14.5525 42.555 14.4025C40.9075 14.4025 39.49 13.1775 39.1675 11.59C38.921 10.4272 38.2807 9.38508 37.3546 8.63987C36.4286 7.89466 35.2736 7.49202 34.085 7.49999H25.915C23.445 7.49999 21.3175 9.21249 20.8325 11.59C20.51 13.1775 19.0925 14.4025 17.445 14.4025C13.995 14.5525 11.74 14.9775 9.9375 16.1575C8.72884 16.9499 7.68818 17.9727 6.875 19.1675C5 21.9175 5 25.7475 5 33.41C5 41.0725 5 44.9 6.8725 47.6525C7.6825 48.8425 8.7225 49.865 9.9375 50.6625C12.74 52.5 16.6425 52.5 24.445 52.5ZM30 23.1825C24.2475 23.1825 19.5825 27.76 19.5825 33.4075C19.5825 39.055 24.25 43.64 30 43.64C35.75 43.64 40.4175 39.06 40.4175 33.4125C40.4175 27.765 35.75 23.1825 30 23.1825ZM30 27.2725C26.55 27.2725 23.75 30.02 23.75 33.41C23.75 36.7975 26.55 39.545 30 39.545C33.45 39.545 36.25 36.7975 36.25 33.41C36.25 30.0225 33.45 27.2725 30 27.2725ZM41.805 25.2275C41.805 24.0975 42.7375 23.1825 43.89 23.1825H46.665C47.815 23.1825 48.75 24.0975 48.75 25.2275C48.7447 25.7747 48.5224 26.2975 48.1319 26.681C47.7415 27.0644 47.2147 27.2772 46.6675 27.2725H43.89C43.6188 27.2751 43.3498 27.2243 43.0982 27.123C42.8467 27.0216 42.6176 26.8717 42.4239 26.6818C42.2303 26.4919 42.076 26.2658 41.9698 26.0162C41.8636 25.7667 41.8076 25.4987 41.805 25.2275Z" fill="black" fill-opacity="0.5"/>
</svg>
