<svg xmlns="http://www.w3.org/2000/svg" fill="none" viewBox="3.0855864108352145 100.94515 992.0090293453725 936.2360000000001" style="max-height: 500px" width="992.0090293453725" height="936.2360000000001">
<g filter="url(#filter0_f_146_2671)">
<ellipse fill="#296986" ry="276.5" rx="211" cy="576.5" cx="511"/>
</g>
<path fill="#B2B2B2" d="M518.949 422.185C519.387 423.795 519.569 425.443 519.497 427.13C517.852 427.13 516.208 427.13 514.563 427.13C514.107 408.174 513.833 389.126 513.741 369.985C512.488 367.116 510.387 365.193 507.437 364.215C449.682 363.762 391.939 363.853 334.208 364.49C335.206 362.3 336.851 360.743 339.141 359.819C397.067 359.453 454.993 359.453 512.919 359.819C515.786 361.046 517.705 363.152 518.675 366.138C518.949 384.819 519.04 403.502 518.949 422.185Z" clip-rule="evenodd" fill-rule="evenodd"/>
<path fill="#E4E5E5" d="M514.563 427.13C514.563 427.313 514.563 427.497 514.563 427.68C514.017 436.558 513.834 445.533 514.015 454.604C515.776 454.434 517.421 454.617 518.949 455.154C517.304 455.154 515.66 455.154 514.015 455.154C514.015 488.123 514.015 521.091 514.015 554.06C514.015 563.218 514.015 572.376 514.015 581.534C514.015 602.964 514.015 624.393 514.015 645.823C514.015 654.981 514.015 664.139 514.015 673.297C514.015 683.005 514.015 692.712 514.015 702.419C514.015 711.394 514.015 720.369 514.015 729.344C515.776 729.173 517.421 729.356 518.949 729.893C517.304 729.893 515.66 729.893 514.015 729.893C513.957 734.778 513.957 739.54 514.015 744.18C512.762 744.718 511.849 745.633 511.274 746.927C510.024 747.554 508.745 748.195 507.437 748.85C450.608 749.125 393.778 749.217 336.949 749.125C332.884 748.621 330.234 746.423 329 742.531C328.634 618.349 328.634 494.167 329 369.985C330.121 367.54 331.858 365.708 334.208 364.49C391.939 363.853 449.682 363.762 507.437 364.215C510.387 365.193 512.488 367.116 513.741 369.985C513.833 389.126 514.107 408.174 514.563 427.13Z" clip-rule="evenodd" fill-rule="evenodd"/>
<path fill="#B2B2B2" d="M687.244 627.69C687.515 626.601 687.79 625.502 688.066 624.393C688.432 542.704 688.432 461.015 688.066 379.326C687.578 376.088 685.842 373.798 682.859 372.457C630.468 372 578.115 372.092 525.801 372.732C525.547 372.406 525.455 372.039 525.527 371.633C526.747 369.771 528.391 368.397 530.461 367.512C582.357 367.145 634.252 367.145 686.148 367.512C689.42 368.225 691.704 370.148 693 373.281C693.366 455.886 693.366 538.492 693 621.096C692.318 624.433 690.399 626.631 687.244 627.69Z" clip-rule="evenodd" fill-rule="evenodd"/>
<path fill="#9B9A98" d="M361.069 372.182C401.818 372.182 442.567 372.182 483.316 372.182C483.316 376.578 483.316 380.974 483.316 385.37C442.384 385.37 401.453 385.37 360.521 385.37C360.43 381.885 360.521 378.405 360.795 374.93C361.363 373.941 361.455 373.025 361.069 372.182Z" clip-rule="evenodd" fill-rule="evenodd"/>
<path fill="#D5D5D5" d="M525.527 371.633C525.455 372.039 525.547 372.406 525.801 372.732C578.115 372.092 630.468 372 682.859 372.457C685.842 373.798 687.578 376.088 688.066 379.326C688.432 461.015 688.432 542.704 688.066 624.393C687.79 625.502 687.515 626.601 687.244 627.69C686.387 628.484 685.657 629.4 685.051 630.438C684.032 631.039 682.936 631.496 681.762 631.811C630.194 631.904 578.663 632.179 527.172 632.635C523.577 631.506 521.11 629.125 519.771 625.492C519.497 601.682 519.405 577.872 519.497 554.06C519.618 552.533 519.436 551.068 518.949 549.664C519.496 509.096 519.68 468.434 519.497 427.68C517.852 427.68 516.208 427.68 514.563 427.68C514.563 427.497 514.563 427.313 514.563 427.13C516.208 427.13 517.852 427.13 519.497 427.13C519.569 425.443 519.387 423.795 518.949 422.185C519.405 407.992 519.679 393.706 519.771 379.326C519.977 377.952 520.433 376.67 521.142 375.479C522.628 374.169 524.09 372.887 525.527 371.633Z" clip-rule="evenodd" fill-rule="evenodd"/>
<path fill="#A4A2A3" d="M361.069 372.182C361.455 373.025 361.363 373.941 360.795 374.93C360.521 378.405 360.43 381.885 360.521 385.37C357.049 385.37 353.577 385.37 350.105 385.37C350.105 403.869 350.105 422.368 350.105 440.867C349.923 440.867 349.74 440.867 349.557 440.867C344.258 440.867 338.959 440.867 333.66 440.867C333.66 417.972 333.66 395.078 333.66 372.182C342.796 372.182 351.932 372.182 361.069 372.182Z" clip-rule="evenodd" fill-rule="evenodd"/>
<path fill="#A3A1A2" d="M483.316 372.182C491.722 372.182 500.128 372.182 508.533 372.182C508.533 376.578 508.533 380.974 508.533 385.37C500.128 385.37 491.722 385.37 483.316 385.37C483.316 380.974 483.316 376.578 483.316 372.182Z" clip-rule="evenodd" fill-rule="evenodd"/>
<path fill="#D0D0D0" d="M528.268 585.38C529.364 586.113 530.461 586.846 531.557 587.578C531.557 598.568 531.557 609.557 531.557 620.547C579.798 620.547 628.039 620.547 676.28 620.547C676.28 611.938 676.28 603.33 676.28 594.721C676.28 592.341 676.28 589.959 676.28 587.578C676.28 583.549 676.28 579.519 676.28 575.49C676.28 563.401 676.28 551.313 676.28 539.224C676.976 513.127 676.976 487.119 676.28 461.198C676.28 458.817 676.28 456.436 676.28 454.055C676.28 450.208 676.28 446.362 676.28 442.516C676.28 422.185 676.28 401.854 676.28 381.524C627.857 381.524 579.433 381.524 531.009 381.524C531.009 401.671 531.009 421.819 531.009 441.966C529.73 441.966 528.451 441.966 527.172 441.966C526.991 420.588 527.174 399.25 527.72 377.952C578.519 377.677 629.318 377.585 680.118 377.677C680.756 460.006 680.847 542.245 680.392 624.393C629.742 624.213 579.035 624.396 528.268 624.943C527.599 624.73 527.234 624.272 527.172 623.569C527.098 611.113 527.189 598.566 527.446 585.93C527.656 585.624 527.93 585.441 528.268 585.38Z" clip-rule="evenodd" fill-rule="evenodd"/>
<path fill="#F4F4F4" d="M676.28 442.516C627.818 442.698 579.394 442.514 531.009 441.966C531.009 421.819 531.009 401.671 531.009 381.524C579.433 381.524 627.857 381.524 676.28 381.524C676.28 401.854 676.28 422.185 676.28 442.516Z" clip-rule="evenodd" fill-rule="evenodd"/>
<path fill="#D2D2D2" d="M360.521 385.37C360.521 403.869 360.521 422.368 360.521 440.867C357.049 440.867 353.577 440.867 350.105 440.867C350.105 422.368 350.105 403.869 350.105 385.37C353.577 385.37 357.049 385.37 360.521 385.37Z" clip-rule="evenodd" fill-rule="evenodd"/>
<path fill="#BFBDBE" d="M360.521 385.37C401.453 385.37 442.384 385.37 483.316 385.37C483.316 403.869 483.316 422.368 483.316 440.867C442.384 440.867 401.453 440.867 360.521 440.867C360.521 422.368 360.521 403.869 360.521 385.37Z" clip-rule="evenodd" fill-rule="evenodd"/>
<path fill="#D2D2D2" d="M483.316 385.37C491.722 385.37 500.128 385.37 508.533 385.37C508.533 403.869 508.533 422.368 508.533 440.867C500.128 440.867 491.722 440.867 483.316 440.867C483.316 422.368 483.316 403.869 483.316 385.37Z" clip-rule="evenodd" fill-rule="evenodd"/>
<path fill="#FBFBFB" d="M514.563 427.68C516.208 427.68 517.852 427.68 519.497 427.68C519.68 468.434 519.496 509.096 518.949 549.664C518.949 518.161 518.949 486.657 518.949 455.154C517.421 454.617 515.776 454.434 514.015 454.604C513.834 445.533 514.017 436.558 514.563 427.68Z" clip-rule="evenodd" fill-rule="evenodd"/>
<path fill="#FCFCFC" d="M349.557 440.867C349.74 440.867 349.923 440.867 350.105 440.867C353.577 440.867 357.049 440.867 360.521 440.867C360.521 442.149 360.521 443.432 360.521 444.714C357.049 444.714 353.577 444.714 350.105 444.714C345.172 444.714 340.238 444.714 335.304 444.714C334.441 443.827 334.076 442.728 334.208 441.417C339.424 441.596 344.54 441.414 349.557 440.867Z" clip-rule="evenodd" fill-rule="evenodd"/>
<path fill="#DBDADA" d="M360.521 440.867C401.453 440.867 442.384 440.867 483.316 440.867C483.316 442.149 483.316 443.432 483.316 444.714C442.384 444.714 401.453 444.714 360.521 444.714C360.521 443.432 360.521 442.149 360.521 440.867Z" clip-rule="evenodd" fill-rule="evenodd"/>
<path fill="#FCFCFC" d="M483.316 440.867C491.722 440.867 500.128 440.867 508.533 440.867C509.264 442.149 509.264 443.432 508.533 444.714C500.128 444.714 491.722 444.714 483.316 444.714C483.316 443.432 483.316 442.149 483.316 440.867Z" clip-rule="evenodd" fill-rule="evenodd"/>
<path fill="#E1EDF5" d="M531.009 441.966C579.394 442.514 627.818 442.698 676.28 442.516C676.28 446.362 676.28 450.208 676.28 454.055C628.039 454.055 579.798 454.055 531.557 454.055C529.225 453.459 527.672 451.993 526.898 449.659C526.624 447.285 526.533 444.904 526.624 442.516C528.205 442.684 529.667 442.501 531.009 441.966Z" clip-rule="evenodd" fill-rule="evenodd"/>
<path fill="#C0BEBF" d="M350.105 444.714C353.577 444.714 357.049 444.714 360.521 444.714C360.521 449.11 360.521 453.505 360.521 457.901C357.049 457.901 353.577 457.901 350.105 457.901C350.105 453.505 350.105 449.11 350.105 444.714Z" clip-rule="evenodd" fill-rule="evenodd"/>
<path fill="#B0AEAF" d="M360.521 444.714C401.453 444.714 442.384 444.714 483.316 444.714C483.316 449.11 483.316 453.505 483.316 457.901C442.567 457.901 401.818 457.901 361.069 457.901C360.887 457.901 360.704 457.901 360.521 457.901C360.521 453.505 360.521 449.11 360.521 444.714Z" clip-rule="evenodd" fill-rule="evenodd"/>
<path fill="#C0BEBF" d="M483.316 444.714C491.722 444.714 500.128 444.714 508.533 444.714C508.533 449.11 508.533 453.505 508.533 457.901C500.128 457.901 491.722 457.901 483.316 457.901C483.316 453.505 483.316 449.11 483.316 444.714Z" clip-rule="evenodd" fill-rule="evenodd"/>
<path fill="#A2A0A1" d="M334.208 444.714C334.573 444.714 334.938 444.714 335.304 444.714C340.238 444.714 345.172 444.714 350.105 444.714C350.105 449.11 350.105 453.505 350.105 457.901C349.558 473.742 349.376 489.677 349.557 505.706C344.441 505.706 339.324 505.706 334.208 505.706C334.208 485.375 334.208 465.044 334.208 444.714Z" clip-rule="evenodd" fill-rule="evenodd"/>
<path fill="#DEDEDE" d="M531.557 454.055C579.798 454.055 628.039 454.055 676.28 454.055C676.28 456.436 676.28 458.817 676.28 461.198C629.866 461.29 583.453 461.198 537.039 460.923C535.101 459.164 533.365 457.241 531.831 455.154C531.74 475.577 531.466 495.908 531.009 516.146C530.83 495.409 531.013 474.712 531.557 454.055Z" clip-rule="evenodd" fill-rule="evenodd"/>
<path fill="#B4B4B4" d="M518.949 455.154C518.949 486.657 518.949 518.161 518.949 549.664C519.436 551.068 519.618 552.533 519.497 554.06C517.67 554.06 515.842 554.06 514.015 554.06C514.015 521.091 514.015 488.123 514.015 455.154C515.66 455.154 517.304 455.154 518.949 455.154Z" clip-rule="evenodd" fill-rule="evenodd"/>
<path fill="#F4F4F4" d="M676.28 461.198C676.28 479.331 676.28 497.464 676.28 515.596C675.233 515.637 674.593 516.187 674.362 517.245C674.179 520.359 673.996 523.472 673.813 526.586C672.356 528.819 670.255 529.734 667.509 529.333C668.487 525.204 668.487 520.991 667.509 516.695C622.199 516.698 576.881 516.698 531.557 516.695C531.557 520.725 531.557 524.755 531.557 528.784C531.013 524.673 530.831 520.46 531.009 516.146C531.466 495.908 531.74 475.577 531.831 455.154C533.365 457.241 535.101 459.164 537.039 460.923C583.453 461.198 629.866 461.29 676.28 461.198Z" clip-rule="evenodd" fill-rule="evenodd"/>
<path fill="#D1D0D1" d="M334.208 444.714C334.208 465.044 334.208 485.375 334.208 505.706C339.324 505.706 344.441 505.706 349.557 505.706C349.376 489.677 349.558 473.742 350.105 457.901C353.577 457.901 357.049 457.901 360.521 457.901C360.704 457.901 360.887 457.901 361.069 457.901C361.069 473.836 361.069 489.771 361.069 505.706C401.818 505.706 442.567 505.706 483.316 505.706C483.316 505.889 483.316 506.072 483.316 506.255C442.384 506.255 401.453 506.255 360.521 506.255C351.75 506.255 342.979 506.255 334.208 506.255C333.477 485.742 333.477 465.227 334.208 444.714Z" clip-rule="evenodd" fill-rule="evenodd"/>
<path fill="#BEBCBD" d="M361.069 457.901C401.818 457.901 442.567 457.901 483.316 457.901C483.316 473.836 483.316 489.771 483.316 505.706C442.567 505.706 401.818 505.706 361.069 505.706C361.069 489.771 361.069 473.836 361.069 457.901Z" clip-rule="evenodd" fill-rule="evenodd"/>
<path fill="#D2D2D2" d="M483.316 457.901C491.722 457.901 500.128 457.901 508.533 457.901C508.533 473.836 508.533 489.771 508.533 505.706C500.128 505.706 491.722 505.706 483.316 505.706C483.316 489.771 483.316 473.836 483.316 457.901Z" clip-rule="evenodd" fill-rule="evenodd"/>
<path fill="#FEFEFE" d="M334.208 506.255C342.979 506.255 351.75 506.255 360.521 506.255C360.521 507.354 360.521 508.453 360.521 509.552C356.866 509.552 353.212 509.552 349.557 509.552C344.441 509.552 339.324 509.552 334.208 509.552C334.208 508.453 334.208 507.354 334.208 506.255Z" clip-rule="evenodd" fill-rule="evenodd"/>
<path fill="#DCDCDC" d="M360.521 506.255C401.453 506.255 442.384 506.255 483.316 506.255C483.316 507.354 483.316 508.453 483.316 509.552C442.384 509.552 401.453 509.552 360.521 509.552C360.521 508.453 360.521 507.354 360.521 506.255Z" clip-rule="evenodd" fill-rule="evenodd"/>
<path fill="#FEFEFE" d="M483.316 506.255C491.541 506.164 499.764 506.255 507.985 506.53C508.482 507.464 508.664 508.471 508.533 509.552C500.128 509.552 491.722 509.552 483.316 509.552C483.316 508.453 483.316 507.354 483.316 506.255Z" clip-rule="evenodd" fill-rule="evenodd"/>
<path fill="#C1BFC0" d="M349.557 509.552C353.212 509.552 356.866 509.552 360.521 509.552C401.453 509.552 442.384 509.552 483.316 509.552C491.722 509.552 500.128 509.552 508.533 509.552C508.533 514.131 508.533 518.71 508.533 523.289C500.128 523.289 491.722 523.289 483.316 523.289C483.316 518.893 483.316 514.498 483.316 510.102C442.384 510.102 401.453 510.102 360.521 510.102C360.521 514.498 360.521 518.893 360.521 523.289C356.866 523.289 353.212 523.289 349.557 523.289C349.736 528.517 349.554 533.646 349.009 538.675C349.107 528.965 349.289 519.258 349.557 509.552Z" clip-rule="evenodd" fill-rule="evenodd"/>
<path fill="#B1AFB0" d="M483.316 523.289C442.384 523.289 401.453 523.289 360.521 523.289C360.521 518.893 360.521 514.498 360.521 510.102C401.453 510.102 442.384 510.102 483.316 510.102C483.316 514.498 483.316 518.893 483.316 523.289Z" clip-rule="evenodd" fill-rule="evenodd"/>
<path fill="#A2A0A1" d="M334.208 509.552C339.324 509.552 344.441 509.552 349.557 509.552C349.289 519.258 349.107 528.965 349.009 538.675C349.009 547.833 349.009 556.99 349.009 566.149C344.075 566.149 339.141 566.149 334.208 566.149C334.208 547.283 334.208 528.417 334.208 509.552Z" clip-rule="evenodd" fill-rule="evenodd"/>
<path fill="#D3D3D3" d="M334.208 509.552C334.208 528.417 334.208 547.283 334.208 566.149C339.141 566.149 344.075 566.149 349.009 566.149C349.009 556.99 349.009 547.833 349.009 538.675C349.554 533.646 349.736 528.517 349.557 523.289C353.212 523.289 356.866 523.289 360.521 523.289C360.521 537.576 360.521 551.862 360.521 566.149C401.453 566.149 442.384 566.149 483.316 566.149C483.316 566.332 483.316 566.515 483.316 566.698C433.613 566.698 383.911 566.698 334.208 566.698C333.477 547.649 333.477 528.601 334.208 509.552Z" clip-rule="evenodd" fill-rule="evenodd"/>
<path fill="#BEBCBD" d="M360.521 523.289C401.453 523.289 442.384 523.289 483.316 523.289C483.316 537.576 483.316 551.862 483.316 566.149C442.384 566.149 401.453 566.149 360.521 566.149C360.521 551.862 360.521 537.576 360.521 523.289Z" clip-rule="evenodd" fill-rule="evenodd"/>
<path fill="#D2D2D2" d="M483.316 523.289C491.722 523.289 500.128 523.289 508.533 523.289C508.533 537.576 508.533 551.862 508.533 566.149C500.128 566.149 491.722 566.149 483.316 566.149C483.316 551.862 483.316 537.576 483.316 523.289Z" clip-rule="evenodd" fill-rule="evenodd"/>
<path fill="#F4F4F4" d="M534.298 532.081C535.993 534.607 538.003 536.896 540.328 538.949C585.645 539.224 630.963 539.316 676.28 539.224C676.28 551.313 676.28 563.401 676.28 575.49C628.039 575.49 579.798 575.49 531.557 575.49C531.557 561.02 531.557 546.55 531.557 532.081C532.471 532.081 533.384 532.081 534.298 532.081Z" clip-rule="evenodd" fill-rule="evenodd"/>
<path fill="#DEDEDE" d="M676.28 461.198C676.976 487.119 676.976 513.127 676.28 539.224C630.963 539.316 585.645 539.224 540.328 538.949C538.003 536.896 535.993 534.607 534.298 532.081C580.347 532.173 626.395 532.081 672.443 531.806C673.83 531.149 674.926 530.142 675.732 528.784C676.279 524.404 676.462 520.008 676.28 515.596C676.28 497.464 676.28 479.331 676.28 461.198Z" clip-rule="evenodd" fill-rule="evenodd"/>
<path fill="#FEFEFE" d="M334.208 566.698C383.911 566.698 433.613 566.698 483.316 566.698C491.722 566.698 500.128 566.698 508.533 566.698C508.664 567.779 508.482 568.787 507.985 569.72C454.993 569.995 402.001 570.087 349.009 569.995C344.075 569.995 339.141 569.995 334.208 569.995C334.208 568.896 334.208 567.797 334.208 566.698Z" clip-rule="evenodd" fill-rule="evenodd"/>
<path fill="#91999E" d="M334.208 570.544C335.67 570.544 337.131 570.544 338.593 570.544C338.502 585.381 338.593 600.217 338.867 615.052C340.199 620.142 343.397 623.256 348.461 624.393C348.461 625.859 348.461 627.324 348.461 628.789C343.81 629.335 339.059 629.518 334.208 629.339C334.208 609.74 334.208 590.143 334.208 570.544Z" clip-rule="evenodd" fill-rule="evenodd"/>
<path fill="#9DA9AF" d="M334.208 570.544C334.208 570.361 334.208 570.178 334.208 569.995C339.141 569.995 344.075 569.995 349.009 569.995C349.009 570.178 349.009 570.361 349.009 570.544C349.009 573.292 349.009 576.039 349.009 578.787C345.568 579.762 343.284 581.96 342.157 585.38C341.539 590.562 341.265 595.782 341.334 601.04C341.426 605.711 341.517 610.382 341.608 615.052C342.661 618.761 344.945 621.325 348.461 622.745C348.461 623.294 348.461 623.844 348.461 624.393C343.397 623.256 340.199 620.142 338.867 615.052C338.593 600.217 338.502 585.381 338.593 570.544C337.131 570.544 335.67 570.544 334.208 570.544Z" clip-rule="evenodd" fill-rule="evenodd"/>
<path fill="#C1CFD7" d="M349.009 570.544C400.722 570.544 452.435 570.544 504.148 570.544C504.218 585.84 504.127 601.225 503.873 616.701C501.781 620.632 498.583 623.104 494.28 624.119C445.674 624.393 397.067 624.485 348.461 624.393C348.461 623.844 348.461 623.294 348.461 622.745C354.418 624.08 358.895 622.066 361.891 616.701C362.509 611.519 362.783 606.299 362.714 601.04C362.622 596.37 362.531 591.699 362.44 587.029C361.768 583.571 359.849 581.098 356.684 579.611C354.181 578.891 351.622 578.617 349.009 578.787C349.009 576.039 349.009 573.292 349.009 570.544Z" clip-rule="evenodd" fill-rule="evenodd"/>
<path fill="#DEE5E9" d="M368.196 576.589C406.204 576.497 444.212 576.589 482.22 576.863C483.682 577.962 483.682 579.061 482.22 580.16C444.029 580.527 405.838 580.527 367.647 580.16C366.875 578.806 367.058 577.616 368.196 576.589Z" clip-rule="evenodd" fill-rule="evenodd"/>
<path fill="#E1ECF5" d="M676.28 515.596C676.462 520.008 676.279 524.404 675.732 528.784C674.926 530.142 673.83 531.149 672.443 531.806C626.395 532.081 580.347 532.173 534.298 532.081C533.384 532.081 532.471 532.081 531.557 532.081C531.557 546.55 531.557 561.02 531.557 575.49C579.798 575.49 628.039 575.49 676.28 575.49C676.28 579.519 676.28 583.549 676.28 587.578C672.974 587.687 669.684 587.504 666.413 587.029C621.925 587.39 577.522 587.757 533.202 588.128C532.713 587.793 532.165 587.61 531.557 587.578C530.461 586.846 529.364 586.113 528.268 585.38C526.797 582.304 526.249 579.007 526.624 575.49C528.086 575.49 529.547 575.49 531.009 575.49C531.101 561.019 531.009 546.549 530.735 532.081C528.875 531.132 527.596 529.666 526.898 527.685C526.624 523.843 526.533 519.997 526.624 516.146C528.086 516.146 529.547 516.146 531.009 516.146C530.831 520.46 531.013 524.673 531.557 528.784C576.836 529.332 622.153 529.515 667.509 529.333C670.255 529.734 672.356 528.819 673.813 526.586C673.996 523.472 674.179 520.359 674.362 517.245C674.593 516.187 675.233 515.637 676.28 515.596Z" clip-rule="evenodd" fill-rule="evenodd"/>
<path fill="#FBFBFB" d="M667.509 529.333C622.153 529.515 576.836 529.332 531.557 528.784C531.557 524.755 531.557 520.725 531.557 516.695C576.881 516.698 622.199 516.698 667.509 516.695C668.487 520.991 668.487 525.204 667.509 529.333Z" clip-rule="evenodd" fill-rule="evenodd"/>
<path fill="#DEE6E9" d="M349.009 578.787C351.622 578.617 354.181 578.891 356.684 579.611C359.849 581.098 361.768 583.571 362.44 587.029C362.531 591.699 362.622 596.37 362.714 601.04C362.783 606.299 362.509 611.519 361.891 616.701C358.895 622.066 354.418 624.08 348.461 622.745C348.461 620.18 348.461 617.617 348.461 615.052C350.351 615.61 352.088 615.244 353.669 613.953C354.125 605.156 354.034 596.364 353.394 587.578C352.255 586.212 350.793 585.663 349.009 585.93C349.009 583.549 349.009 581.167 349.009 578.787Z" clip-rule="evenodd" fill-rule="evenodd"/>
<path fill="#B4B4B4" d="M514.015 581.534C515.66 581.534 517.304 581.534 518.949 581.534C518.949 601.498 518.949 621.463 518.949 641.427C519.436 642.831 519.618 644.296 519.497 645.823C517.67 645.823 515.842 645.823 514.015 645.823C514.015 624.393 514.015 602.964 514.015 581.534Z" clip-rule="evenodd" fill-rule="evenodd"/>
<path fill="#ECF0F3" d="M349.009 585.93C350.793 585.663 352.255 586.212 353.394 587.578C354.034 596.364 354.125 605.156 353.669 613.953C352.088 615.244 350.351 615.61 348.461 615.052C348.12 614.433 347.663 613.883 347.09 613.404C346.725 604.979 346.725 596.553 347.09 588.128C347.656 587.289 348.296 586.556 349.009 585.93Z" clip-rule="evenodd" fill-rule="evenodd"/>
<path fill="#DEDEDE" d="M676.28 587.578C676.28 589.959 676.28 592.341 676.28 594.721C630.415 594.813 584.549 594.721 538.684 594.447C536.962 592.263 535.135 590.156 533.202 588.128C577.522 587.757 621.925 587.39 666.413 587.029C669.684 587.504 672.974 587.687 676.28 587.578Z" clip-rule="evenodd" fill-rule="evenodd"/>
<path fill="#F4F4F4" d="M531.557 587.578C532.165 587.61 532.713 587.793 533.202 588.128C535.135 590.156 536.962 592.263 538.684 594.447C584.549 594.721 630.415 594.813 676.28 594.721C676.28 603.33 676.28 611.938 676.28 620.547C628.039 620.547 579.798 620.547 531.557 620.547C531.557 609.557 531.557 598.568 531.557 587.578Z" clip-rule="evenodd" fill-rule="evenodd"/>
<path fill="#CED3D8" d="M349.009 578.787C349.009 581.167 349.009 583.549 349.009 585.93C348.296 586.556 347.656 587.289 347.09 588.128C346.725 596.553 346.725 604.979 347.09 613.404C347.663 613.883 348.12 614.433 348.461 615.052C348.461 617.617 348.461 620.18 348.461 622.745C344.945 621.325 342.661 618.761 341.608 615.052C341.517 610.382 341.426 605.711 341.334 601.04C341.265 595.782 341.539 590.562 342.157 585.38C343.284 581.96 345.568 579.762 349.009 578.787Z" clip-rule="evenodd" fill-rule="evenodd"/>
<path fill="#DFE6EA" d="M368.744 614.503C406.204 614.411 443.664 614.503 481.123 614.777C483.987 616.979 483.987 619.177 481.123 621.371C443.664 621.738 406.204 621.738 368.744 621.371C366.636 619.105 366.636 616.815 368.744 614.503Z" clip-rule="evenodd" fill-rule="evenodd"/>
<path fill="#B9C7CD" d="M504.148 570.544C505.61 570.544 507.071 570.544 508.533 570.544C508.533 589.959 508.533 609.374 508.533 628.789C455.176 628.789 401.818 628.789 348.461 628.789C348.461 627.324 348.461 625.859 348.461 624.393C397.067 624.485 445.674 624.393 494.28 624.119C498.583 623.104 501.781 620.632 503.873 616.701C504.127 601.225 504.218 585.84 504.148 570.544Z" clip-rule="evenodd" fill-rule="evenodd"/>
<path fill="#FBFBFB" d="M514.015 554.06C515.842 554.06 517.67 554.06 519.497 554.06C519.405 577.872 519.497 601.682 519.771 625.492C521.11 629.125 523.577 631.506 527.172 632.635C526.806 633.002 526.441 633.368 526.075 633.734C524.626 635.091 523.073 636.373 521.416 637.581C520.675 639.013 519.852 640.295 518.949 641.427C518.949 621.463 518.949 601.498 518.949 581.534C517.304 581.534 515.66 581.534 514.015 581.534C514.015 572.376 514.015 563.218 514.015 554.06Z" clip-rule="evenodd" fill-rule="evenodd"/>
<path fill="#B2B2B2" d="M685.051 630.438C688.851 630.85 691.501 632.864 693 636.482C693.366 670.55 693.366 704.617 693 738.685C692.503 741.835 690.767 743.849 687.792 744.729C687.495 744.696 687.312 744.513 687.244 744.18C687.603 743.292 687.877 742.376 688.066 741.432C688.432 708.281 688.432 675.128 688.066 641.977C687.337 638.13 685.054 635.657 681.214 634.559C629.554 634.101 577.933 634.193 526.349 634.833C526.095 634.507 526.004 634.141 526.075 633.734C526.441 633.368 526.806 633.002 527.172 632.635C578.663 632.179 630.194 631.904 681.762 631.811C682.936 631.496 684.032 631.039 685.051 630.438Z" clip-rule="evenodd" fill-rule="evenodd"/>
<path fill="#D3D3D3" d="M333.66 631.537C391.951 631.537 450.242 631.537 508.533 631.537C508.533 668.535 508.533 705.533 508.533 742.531C450.242 742.531 391.951 742.531 333.66 742.531C333.66 705.533 333.66 668.535 333.66 631.537Z" clip-rule="evenodd" fill-rule="evenodd"/>
<path fill="#D5D5D5" d="M526.075 633.734C526.004 634.141 526.095 634.507 526.349 634.833C577.933 634.193 629.554 634.101 681.214 634.559C685.054 635.657 687.337 638.13 688.066 641.977C688.432 675.128 688.432 708.281 688.066 741.432C687.877 742.376 687.603 743.292 687.244 744.18C687.312 744.513 687.495 744.696 687.792 744.729C686.169 746.624 684.159 747.997 681.762 748.85C629.501 749.217 577.24 749.217 524.979 748.85C522.243 747.573 520.507 745.467 519.771 742.531C519.497 729.162 519.405 715.791 519.497 702.419C517.67 702.419 515.842 702.419 514.015 702.419C514.015 692.712 514.015 683.005 514.015 673.297C514.198 673.297 514.381 673.297 514.563 673.297C514.563 682.821 514.563 692.346 514.563 701.87C516.208 701.87 517.852 701.87 519.497 701.87C519.608 700.524 519.425 699.242 518.949 698.023C519.496 680.717 519.679 663.317 519.497 645.823C519.618 644.296 519.436 642.831 518.949 641.427C519.852 640.295 520.675 639.013 521.416 637.581C523.073 636.373 524.626 635.091 526.075 633.734Z" clip-rule="evenodd" fill-rule="evenodd"/>
<path fill="#FEFEFE" d="M505.792 649.669C449.511 649.669 393.23 649.669 336.949 649.669C336.858 646.55 336.949 643.437 337.223 640.328C338.228 638.222 339.781 636.665 341.882 635.658C394.509 635.291 447.136 635.291 499.762 635.658C502.543 636.43 504.462 638.17 505.518 640.878C505.792 643.803 505.883 646.733 505.792 649.669Z" clip-rule="evenodd" fill-rule="evenodd"/>
<path fill="#EAEAEA" d="M527.72 640.878C578.519 640.878 629.318 640.878 680.118 640.878C680.118 674.945 680.118 709.013 680.118 743.081C629.318 743.081 578.519 743.081 527.72 743.081C527.72 709.013 527.72 674.945 527.72 640.878Z" clip-rule="evenodd" fill-rule="evenodd"/>
<path fill="#DCE4E6" d="M409.858 640.878C416.987 640.786 424.114 640.878 431.238 641.152C432.116 643.128 431.933 644.96 430.69 646.647C423.746 647.014 416.802 647.014 409.858 646.647C409.147 644.725 409.147 642.801 409.858 640.878Z" clip-rule="evenodd" fill-rule="evenodd"/>
<path fill="#F4F4F4" d="M531.009 644.175C579.433 644.083 627.857 644.175 676.28 644.449C676.827 676.005 677.01 707.6 676.828 739.234C628.458 739.052 580.125 739.235 531.831 739.784C531.011 707.993 530.737 676.123 531.009 644.175Z" clip-rule="evenodd" fill-rule="evenodd"/>
<path fill="#FCFCFC" d="M514.015 645.823C515.842 645.823 517.67 645.823 519.497 645.823C519.679 663.317 519.496 680.717 518.949 698.023C518.949 689.781 518.949 681.539 518.949 673.297C517.487 673.297 516.025 673.297 514.563 673.297C514.381 673.297 514.198 673.297 514.015 673.297C514.015 664.139 514.015 654.981 514.015 645.823Z" clip-rule="evenodd" fill-rule="evenodd"/>
<path fill="#E5E9EA" d="M336.949 649.669C393.23 649.669 449.511 649.669 505.792 649.669C505.973 659.473 505.791 669.18 505.244 678.792C505.244 671.466 505.244 664.139 505.244 656.813C503.417 656.813 501.589 656.813 499.762 656.813C499.943 660.494 499.76 664.157 499.214 667.802C498.893 667.687 498.619 667.504 498.392 667.253C498.117 663.777 498.026 660.297 498.117 656.813C446.953 656.813 395.788 656.813 344.623 656.813C344.623 660.476 344.623 664.139 344.623 667.802C344.075 667.802 343.527 667.802 342.979 667.802C342.979 664.139 342.979 660.476 342.979 656.813C340.913 656.672 338.902 656.855 336.949 657.362C336.949 654.798 336.949 652.234 336.949 649.669Z" clip-rule="evenodd" fill-rule="evenodd"/>
<path fill="#F4F5F7" d="M505.244 678.792C504.751 682.127 502.924 684.417 499.762 685.66C447.501 686.027 395.24 686.027 342.979 685.66C340.184 684.873 338.265 683.133 337.223 680.44C336.949 672.75 336.857 665.057 336.949 657.362C338.902 656.855 340.913 656.672 342.979 656.813C342.979 660.476 342.979 664.139 342.979 667.802C343.527 667.802 344.075 667.802 344.623 667.802C344.623 664.139 344.623 660.476 344.623 656.813C395.788 656.813 446.953 656.813 498.117 656.813C498.026 660.297 498.117 663.777 498.392 667.253C498.619 667.504 498.893 667.687 499.214 667.802C499.76 664.157 499.943 660.494 499.762 656.813C501.589 656.813 503.417 656.813 505.244 656.813C505.244 664.139 505.244 671.466 505.244 678.792Z" clip-rule="evenodd" fill-rule="evenodd"/>
<path fill="#CDD3D5" d="M535.395 662.307C580.895 662.307 626.395 662.307 671.895 662.307C671.895 663.04 671.895 663.773 671.895 664.505C626.395 664.505 580.895 664.505 535.395 664.505C535.395 663.773 535.395 663.04 535.395 662.307Z" clip-rule="evenodd" fill-rule="evenodd"/>
<path fill="#B2B2B2" d="M514.563 673.297C516.025 673.297 517.487 673.297 518.949 673.297C518.949 681.539 518.949 689.781 518.949 698.023C519.425 699.242 519.608 700.524 519.497 701.87C517.852 701.87 516.208 701.87 514.563 701.87C514.563 692.346 514.563 682.821 514.563 673.297Z" clip-rule="evenodd" fill-rule="evenodd"/>
<path fill="#E5EAED" d="M342.979 674.396C394.144 674.304 445.308 674.396 496.473 674.671C498.14 674.565 499.054 675.298 499.214 676.869C499.168 678.15 498.62 679.158 497.569 679.891C445.842 680.619 394.129 680.619 342.431 679.891C341.548 677.941 341.731 676.109 342.979 674.396Z" clip-rule="evenodd" fill-rule="evenodd"/>
<path fill="#FEFEFE" d="M505.792 703.518C452.074 702.983 398.351 702.8 344.623 702.969C344.623 700.588 344.623 698.206 344.623 695.826C344.075 695.826 343.527 695.826 342.979 695.826C342.979 698.206 342.979 700.588 342.979 702.969C340.969 702.969 338.959 702.969 336.949 702.969C336.746 699.438 337.02 695.959 337.771 692.529C339.025 690.901 340.578 689.71 342.431 688.957C394.692 688.591 446.953 688.591 499.214 688.957C502.358 689.727 504.46 691.651 505.518 694.727C505.792 697.651 505.883 700.582 505.792 703.518Z" clip-rule="evenodd" fill-rule="evenodd"/>
<path fill="#CED3D5" d="M535.395 691.979C580.895 691.979 626.395 691.979 671.895 691.979C671.895 692.712 671.895 693.445 671.895 694.177C626.395 694.177 580.895 694.177 535.395 694.177C535.395 693.445 535.395 692.712 535.395 691.979Z" clip-rule="evenodd" fill-rule="evenodd"/>
<path fill="#DDE4E6" d="M409.858 694.177C416.805 694.085 423.748 694.177 430.69 694.452C431.35 695.195 431.715 696.111 431.786 697.199C431.695 698.023 431.604 698.848 431.512 699.672C424.328 700.398 417.11 700.398 409.858 699.672C409.131 697.823 409.131 695.992 409.858 694.177Z" clip-rule="evenodd" fill-rule="evenodd"/>
<path fill="#E5E9EA" d="M505.792 703.518C505.973 713.504 505.791 723.395 505.244 733.19C505.244 725.497 505.244 717.805 505.244 710.112C503.417 710.112 501.589 710.112 499.762 710.112C499.943 713.794 499.76 717.456 499.214 721.102C498.893 720.987 498.619 720.803 498.392 720.552C498.117 717.077 498.026 713.597 498.117 710.112C446.77 710.112 395.423 710.112 344.075 710.112C343.71 724.032 343.344 724.032 342.979 710.112C340.969 710.112 338.959 710.112 336.949 710.112C336.949 707.731 336.949 705.35 336.949 702.969C338.959 702.969 340.969 702.969 342.979 702.969C342.979 700.588 342.979 698.206 342.979 695.826C343.527 695.826 344.075 695.826 344.623 695.826C344.623 698.206 344.623 700.588 344.623 702.969C398.351 702.8 452.074 702.983 505.792 703.518Z" clip-rule="evenodd" fill-rule="evenodd"/>
<path fill="#F4F6F7" d="M336.949 710.112C338.959 710.112 340.969 710.112 342.979 710.112C343.344 724.032 343.71 724.032 344.075 710.112C395.423 710.112 446.77 710.112 498.117 710.112C498.026 713.597 498.117 717.077 498.392 720.552C498.619 720.803 498.893 720.987 499.214 721.102C499.76 717.456 499.943 713.794 499.762 710.112C501.589 710.112 503.417 710.112 505.244 710.112C505.244 717.805 505.244 725.497 505.244 733.19C504.378 736.286 502.368 738.209 499.214 738.96C447.136 739.326 395.057 739.326 342.979 738.96C340.202 738.192 338.284 736.452 337.223 733.74C336.949 725.866 336.857 717.99 336.949 710.112Z" clip-rule="evenodd" fill-rule="evenodd"/>
<path fill="#CFD4D7" d="M535.395 721.651C580.712 721.559 626.03 721.651 671.347 721.926C671.829 722.671 672.012 723.495 671.895 724.398C626.395 724.398 580.895 724.398 535.395 724.398C535.395 723.482 535.395 722.567 535.395 721.651Z" clip-rule="evenodd" fill-rule="evenodd"/>
<path fill="#E4EAEC" d="M345.172 727.695C395.971 727.604 446.77 727.695 497.569 727.97C499.762 729.801 499.762 731.633 497.569 733.465C446.222 733.831 394.875 733.831 343.527 733.465C341.903 732.217 341.537 730.66 342.431 728.794C343.437 728.504 344.351 728.138 345.172 727.695Z" clip-rule="evenodd" fill-rule="evenodd"/>
<path fill="#B5B5B5" d="M518.949 729.893C519.04 732.83 518.948 735.76 518.675 738.685C517.59 740.959 516.037 742.79 514.015 744.18C513.957 739.54 513.957 734.778 514.015 729.893C515.66 729.893 517.304 729.893 518.949 729.893Z" clip-rule="evenodd" fill-rule="evenodd"/>
<path fill="#BCBBB9" d="M511.274 746.927C511.274 751.872 511.274 756.818 511.274 761.763C510.178 761.763 509.081 761.763 507.985 761.763C507.985 763.045 507.985 764.327 507.985 765.609C507.437 765.609 506.889 765.609 506.34 765.609C506.34 762.862 506.34 760.115 506.34 757.367C449.876 757.367 393.413 757.367 336.949 757.367C336.949 754.62 336.949 751.872 336.949 749.125C393.778 749.217 450.608 749.125 507.437 748.85C508.745 748.195 510.024 747.554 511.274 746.927Z" clip-rule="evenodd" fill-rule="evenodd"/>
<path fill="#D6D6D6" d="M336.949 757.367C393.413 757.367 449.876 757.367 506.34 757.367C506.34 760.115 506.34 762.862 506.34 765.609C506.889 765.609 507.437 765.609 507.985 765.609C506.612 766.157 505.15 766.157 503.599 765.609C502.503 765.609 501.407 765.609 500.31 765.609C447.489 765.431 394.679 765.614 341.882 766.159C342.044 767.387 341.861 768.486 341.334 769.456C341.334 768.174 341.334 766.891 341.334 765.609C340.42 765.609 339.507 765.609 338.593 765.609C338.045 765.609 337.497 765.609 336.949 765.609C336.949 762.862 336.949 760.115 336.949 757.367Z" clip-rule="evenodd" fill-rule="evenodd"/>
<path fill="#5F5C5C" d="M338.593 765.609C339.507 765.609 340.42 765.609 341.334 765.609C341.334 766.891 341.334 768.174 341.334 769.456C340.42 769.456 339.507 769.456 338.593 769.456C338.593 768.174 338.593 766.891 338.593 765.609Z" clip-rule="evenodd" fill-rule="evenodd"/>
<path fill="#6B6869" d="M500.31 765.609C501.407 765.609 502.503 765.609 503.599 765.609C503.599 766.891 503.599 768.174 503.599 769.456C502.503 769.456 501.407 769.456 500.31 769.456C500.31 768.174 500.31 766.891 500.31 765.609Z" clip-rule="evenodd" fill-rule="evenodd"/>
<path fill="#255980" d="M557.071 533.364C557.514 533.529 557.79 533.842 557.901 534.304C557.64 534.244 557.403 534.126 557.189 533.951C553.357 534.054 549.523 534.093 545.688 534.069C545.688 533.951 545.688 533.834 545.688 533.716C549.482 533.716 553.276 533.716 557.071 533.716C557.071 533.599 557.071 533.481 557.071 533.364Z" clip-rule="evenodd" fill-rule="evenodd"/>
<path fill="#245D8C" d="M557.071 533.364C557.071 533.481 557.071 533.599 557.071 533.716C553.276 533.716 549.482 533.716 545.688 533.716C545.688 533.834 545.688 533.951 545.688 534.069C549.523 534.093 553.357 534.054 557.189 533.951C557.403 534.126 557.64 534.244 557.901 534.304C557.901 534.657 557.901 535.009 557.901 535.362C553.574 535.358 549.266 535.358 544.977 535.362C545.009 535.015 544.97 534.682 544.858 534.363C545.075 534.069 545.332 533.814 545.629 533.599C545.686 533.487 545.706 533.37 545.688 533.246C545.738 533.161 545.817 533.102 545.925 533.07C549.443 532.991 552.96 532.991 556.478 533.07C556.714 533.114 556.912 533.212 557.071 533.364Z" clip-rule="evenodd" fill-rule="evenodd"/>
<path fill="#265579" d="M545.688 533.246C545.706 533.37 545.686 533.487 545.629 533.599C545.332 533.814 545.075 534.069 544.858 534.363C544.97 534.682 545.009 535.015 544.977 535.362C549.266 535.358 553.574 535.358 557.901 535.362C557.901 535.009 557.901 534.657 557.901 534.304C558.017 534.711 558.057 535.142 558.019 535.597C553.593 535.597 549.166 535.597 544.739 535.597C544.739 535.166 544.739 534.735 544.739 534.304C544.89 533.802 545.206 533.45 545.688 533.246Z" clip-rule="evenodd" fill-rule="evenodd"/>
<path fill="#6A8BA4" d="M544.739 534.304C544.739 534.735 544.739 535.166 544.739 535.597C549.166 535.597 553.593 535.597 558.019 535.597C557.729 535.711 557.413 535.751 557.071 535.715C553.237 535.715 549.403 535.715 545.569 535.715C545.253 535.715 544.937 535.715 544.621 535.715C544.583 535.221 544.623 534.751 544.739 534.304Z" clip-rule="evenodd" fill-rule="evenodd"/>
<path fill="#CCD8DF" d="M545.569 535.832C545.569 535.793 545.569 535.754 545.569 535.715C549.403 535.715 553.237 535.715 557.071 535.715C557.071 535.793 557.071 535.871 557.071 535.95C553.228 535.988 549.394 535.949 545.569 535.832Z" clip-rule="evenodd" fill-rule="evenodd"/>
<path fill="#D3D3D2" d="M545.569 535.832C549.394 535.949 553.228 535.988 557.071 535.95C557.071 536.342 557.071 536.733 557.071 537.125C556.765 537.07 556.527 537.148 556.359 537.36C556.266 537.327 556.187 537.268 556.122 537.184C554.581 537.125 553.04 537.106 551.498 537.125C550.233 537.125 548.968 536.831 547.704 536.831C547.257 536.801 546.822 536.841 546.399 536.949C546.15 536.835 545.873 537.09 545.569 537.125C545.569 536.694 545.569 536.263 545.569 535.832Z" clip-rule="evenodd" fill-rule="evenodd"/>
<path fill="#D2F0EE" d="M547.704 536.831C548.968 536.831 550.233 537.125 551.498 537.125C551.426 538.064 551.366 539.005 551.32 539.947C551.019 541.286 550.723 542.618 550.431 543.944C549.184 543.905 547.959 543.944 546.755 544.061C546.637 544.14 546.518 543.924 546.399 544.002C547.172 541.68 547.607 539.289 547.704 536.831Z" clip-rule="evenodd" fill-rule="evenodd"/>
<path fill="#A2DFDA" d="M551.498 537.125C553.04 537.106 554.581 537.125 556.122 537.184C556.187 537.268 556.266 537.327 556.359 537.36C556.474 541.209 557.522 544.775 559.501 548.058C560.788 550.849 561.519 553.788 561.695 556.875C561.695 557.188 561.695 557.502 561.695 557.815C561.601 557.685 561.542 557.528 561.517 557.345C561.471 557.871 561.332 558.341 561.102 558.756C561.102 558.129 561.102 557.502 561.102 556.875C560.944 556.875 560.786 556.875 560.628 556.875C560.701 561.89 560.741 566.905 560.746 571.922C560.746 576.351 560.869 571.267 560.711 575.615C560.751 566.191 560.509 566.26 560.391 556.875C560.128 555.071 559.772 553.269 559.323 551.467C558.722 550.012 558.11 548.562 557.486 547.118C557.328 547.039 557.209 546.922 557.13 546.765C556.736 545.849 556.4 544.909 556.122 543.944C554.225 543.944 552.328 543.944 550.431 543.944C550.723 542.618 551.019 541.286 551.32 539.947C551.366 539.005 551.426 538.064 551.498 537.125Z" clip-rule="evenodd" fill-rule="evenodd"/>
<path fill="#FEFEFE" d="M550.431 543.944C551.862 544.023 553.304 544.101 554.759 544.179C555.581 546.075 556.451 547.956 557.367 549.821C558.142 552.114 558.655 554.465 558.908 556.875C559.007 566.436 559.477 566.033 559.339 575.594L556.523 575.571L555.174 575.549H552.921C551.379 575.549 551.201 575.549 549.66 575.549C549.304 575.549 549.468 575.549 549.112 575.549H547.941C546.35 575.549 545.245 575.549 543.588 575.549H541.931C541.912 566.144 542.249 565.985 542.309 556.581C542.498 554.118 543.072 551.767 544.028 549.528C544.237 549.247 544.415 549.228 544.562 548.881C544.68 548.803 544.799 548.724 544.917 548.646C545.036 548.215 545.154 547.784 545.273 547.353C545.484 547.026 545.603 547.066 545.629 547.47C545.688 547.08 545.708 546.689 545.688 546.295C545.846 546.295 546.004 546.295 546.162 546.295C546.271 546.015 546.271 545.741 546.162 545.472C546.535 545.077 546.733 544.606 546.755 544.061C547.959 543.944 549.184 543.905 550.431 543.944Z" clip-rule="evenodd" fill-rule="evenodd"/>
<path fill="#E9F9F9" d="M546.755 544.061C546.733 544.606 546.535 545.077 546.162 545.472C546.271 545.741 546.271 546.015 546.162 546.295C546.004 546.295 545.846 546.295 545.688 546.295C545.708 546.689 545.688 547.08 545.629 547.47C545.603 547.066 545.484 547.026 545.273 547.353C545.154 547.784 545.036 548.215 544.917 548.646C544.799 548.724 544.68 548.803 544.562 548.881C544.415 549.228 544.237 549.247 544.028 549.528C544.056 549.158 544.155 548.805 544.324 548.47C544.633 547.955 544.87 547.406 545.036 546.824C545.154 546.706 545.273 546.589 545.392 546.471C545.678 545.625 546.013 544.803 546.399 544.002C546.518 543.924 546.637 544.14 546.755 544.061Z" clip-rule="evenodd" fill-rule="evenodd"/>
<path fill="#A5E0DA" d="M547.704 536.831C547.607 539.289 547.172 541.68 546.399 544.002C546.013 544.803 545.678 545.625 545.392 546.471C545.273 546.589 545.154 546.706 545.036 546.824C544.87 547.406 544.633 547.955 544.324 548.47C544.155 548.805 544.056 549.158 544.028 549.528C543.072 551.767 542.498 554.118 542.309 556.581C542.249 565.985 541.912 566.144 541.931 575.549H544.898C544.898 575.549 547.455 575.549 549.112 575.549H547.941C544.898 575.549 540.844 575.549 540.844 575.549C540.726 566.27 540.906 566.817 540.945 557.521C541.102 554.417 541.754 551.439 542.902 548.587C544.996 544.998 546.162 541.118 546.399 536.949C546.822 536.841 547.257 536.801 547.704 536.831Z" clip-rule="evenodd" fill-rule="evenodd"/>
<path fill="#D1EFED" d="M550.431 543.944C552.328 543.944 554.225 543.944 556.122 543.944C556.4 544.909 556.736 545.849 557.13 546.765C557.209 546.922 557.328 547.039 557.486 547.118C558.11 548.562 558.722 550.012 559.323 551.467C559.772 553.269 560.128 555.071 560.391 556.875C560.43 566.288 560.635 566.208 560.517 575.604L556.523 575.571L559.339 575.594C559.477 566.033 559.007 566.436 558.908 556.875C558.655 554.465 558.142 552.114 557.367 549.821C556.451 547.956 555.581 546.075 554.759 544.179C553.304 544.101 551.862 544.023 550.431 543.944Z" clip-rule="evenodd" fill-rule="evenodd"/>
<path fill="#DFF4F5" d="M540.945 557.521C540.906 566.817 540.726 566.27 540.844 575.549C540.844 575.549 540.827 575.549 540.827 571.746C540.827 567.942 540.866 562.145 540.945 557.521Z" clip-rule="evenodd" fill-rule="evenodd"/>
<path fill="#BCEAE8" d="M560.391 556.875C560.509 566.26 560.751 566.191 560.711 575.615L560.517 575.604C560.635 566.208 560.43 566.288 560.391 556.875Z" clip-rule="evenodd" fill-rule="evenodd"/>
<path fill="#9DE2DD" d="M561.102 558.756C561.332 558.341 561.471 557.871 561.517 557.345C561.542 557.528 561.601 557.685 561.695 557.815C561.599 566.905 561.837 566.536 561.814 575.628C560.865 575.591 560.081 575.608 560.081 575.608L560.517 575.604L560.711 575.615C560.869 571.267 560.746 576.351 560.746 571.922C560.741 566.905 560.701 561.89 560.628 556.875C560.786 556.875 560.944 556.875 561.102 556.875C561.102 557.502 561.102 558.129 561.102 558.756Z" clip-rule="evenodd" fill-rule="evenodd"/>
<path fill="#A5DED8" d="M561.102 558.756C561.141 567.534 560.83 566.838 560.711 575.615C560.672 571.227 560.904 576.311 560.865 571.922C560.865 567.493 560.944 563.105 561.102 558.756Z" clip-rule="evenodd" fill-rule="evenodd"/>
<path fill="#A7D9E0" d="M549.956 559.696C552.892 559.381 555.085 560.478 556.537 562.988C557.691 566.022 556.96 568.51 554.344 570.453C550.807 572.171 547.962 571.407 545.807 568.16C544.58 564.857 545.41 562.212 548.297 560.225C548.863 560.047 549.416 559.87 549.956 559.696Z" clip-rule="evenodd" fill-rule="evenodd"/>
<path fill="#205E80" d="M549.127 560.401C549.14 560.474 549.179 560.533 549.245 560.578C549.051 560.636 548.854 560.655 548.652 560.637C548.585 561.252 548.229 561.605 547.585 561.695C547.327 562.114 546.971 562.388 546.518 562.517C547.143 561.505 548.012 560.8 549.127 560.401Z" clip-rule="evenodd" fill-rule="evenodd"/>
<path fill="#266282" d="M556.004 562.87C556.952 564.594 556.952 566.318 556.004 568.043C555.971 567.52 556.109 567.05 556.419 566.632C556.498 565.809 556.498 564.986 556.419 564.163C555.991 563.795 555.853 563.364 556.004 562.87Z" clip-rule="evenodd" fill-rule="evenodd"/>
<path fill="#1F5B87" d="M556.004 562.87C555.853 563.364 555.991 563.795 556.419 564.163C556.498 564.986 556.498 565.809 556.419 566.632C556.109 567.05 555.971 567.52 556.004 568.043C554.951 570.034 553.271 571.014 550.964 570.982C550.438 571.002 549.944 570.924 549.482 570.746C549.508 570.608 549.469 570.491 549.364 570.394C548.731 570.355 548.296 570.042 548.059 569.453C547.793 569.339 547.517 569.3 547.229 569.336C545.764 567.857 545.271 566.093 545.747 564.046C545.905 563.473 546.162 562.964 546.518 562.517C546.971 562.388 547.327 562.114 547.585 561.695C548.229 561.605 548.585 561.252 548.652 560.637C548.854 560.655 549.051 560.636 549.245 560.578C549.179 560.533 549.14 560.474 549.127 560.401C550.837 559.828 552.497 559.965 554.106 560.813C554.462 561.087 554.818 561.362 555.174 561.636C555.496 562.02 555.772 562.432 556.004 562.87Z" clip-rule="evenodd" fill-rule="evenodd"/>
<path fill="#A9D3EA" d="M553.632 564.986C553.873 565.481 554.189 565.932 554.581 566.338C554.502 566.416 554.423 566.416 554.344 566.338C554.043 565.943 553.727 565.571 553.395 565.221C553.434 565.104 553.514 565.025 553.632 564.986Z" clip-rule="evenodd" fill-rule="evenodd"/>
<path fill="#6A8BA4" d="M549.838 564.398C549.994 565.046 549.994 565.713 549.838 566.397C549.766 566.382 549.726 566.343 549.719 566.279C549.836 565.675 549.876 565.048 549.838 564.398Z" clip-rule="evenodd" fill-rule="evenodd"/>
<path fill="#BBE0F6" d="M549.245 565.104C549.18 565.326 549.062 565.522 548.889 565.691C548.632 565.339 548.376 564.986 548.119 564.633C548.079 565.182 548.04 565.731 548 566.279C547.921 565.613 547.921 564.947 548 564.281C548.3 564.582 548.557 564.915 548.771 565.28C548.956 565.315 549.115 565.257 549.245 565.104Z" clip-rule="evenodd" fill-rule="evenodd"/>
<path fill="#ADC2D3" d="M550.431 564.163C550.587 564.467 550.666 564.82 550.668 565.221C550.628 565.574 550.589 565.927 550.549 566.279C550.431 565.578 550.392 564.873 550.431 564.163Z" clip-rule="evenodd" fill-rule="evenodd"/>
<path fill="#C8E3F2" d="M549.838 564.398C549.876 565.048 549.836 565.675 549.719 566.279C549.739 565.729 549.719 565.181 549.66 564.633C549.548 564.821 549.409 564.977 549.245 565.104C549.315 564.686 549.512 564.451 549.838 564.398Z" clip-rule="evenodd" fill-rule="evenodd"/>
<path fill="#9BBAD1" d="M553.395 565.221C553.119 565.554 552.96 565.945 552.921 566.397C552.763 565.652 552.763 564.908 552.921 564.163C553.018 564.549 553.078 564.941 553.099 565.339C553.178 565.25 553.277 565.211 553.395 565.221Z" clip-rule="evenodd" fill-rule="evenodd"/>
<path fill="#97C2DA" d="M553.632 564.986C553.865 564.697 554.122 564.422 554.403 564.163C554.301 564.559 554.044 564.833 553.632 564.986Z" clip-rule="evenodd" fill-rule="evenodd"/>
<path fill="#597A97" d="M551.379 564.281C551.262 564.924 551.223 565.591 551.261 566.279C551.105 565.592 551.105 564.887 551.261 564.163C551.333 564.178 551.372 564.217 551.379 564.281Z" clip-rule="evenodd" fill-rule="evenodd"/>
<path fill="#ACD3F1" d="M551.379 564.281C551.379 564.908 551.379 565.535 551.379 566.162C551.782 566.124 552.178 566.163 552.565 566.279C552.113 566.433 551.678 566.433 551.261 566.279C551.223 565.591 551.262 564.924 551.379 564.281Z" clip-rule="evenodd" fill-rule="evenodd"/>
<path fill="#205F80" d="M547.229 569.336C547.517 569.3 547.793 569.339 548.059 569.453C548.296 570.042 548.731 570.355 549.364 570.394C549.469 570.491 549.508 570.608 549.482 570.746C548.594 570.483 547.843 570.013 547.229 569.336Z" clip-rule="evenodd" fill-rule="evenodd"/>
<path fill="#ABDCD9" d="M561.695 556.875C561.833 566.416 561.913 566.047 561.814 575.628C561.814 575.628 555.174 575.549 554.581 575.559C554.581 575.559 554.509 575.545 555.932 575.565L557.397 575.563L557.664 575.577L556.845 575.564C555.932 575.565 552.921 575.549 552.921 575.549H555.174L556.523 575.571L560.517 575.604L560.081 575.608C560.081 575.608 560.865 575.591 561.814 575.628C561.837 566.536 561.599 566.905 561.695 557.815C561.695 557.502 561.695 557.188 561.695 556.875Z" clip-rule="evenodd" fill-rule="evenodd"/>
<path fill="#DBEEEF" d="M543.588 575.549C545.245 575.549 546.35 575.549 547.941 575.549H549.112C548.756 575.549 547.941 575.549 547.455 575.549H546.903C546.903 575.549 547.021 575.549 546.637 575.549C545.971 575.549 544.693 575.549 544.693 575.549H544.028H543.588Z" clip-rule="evenodd" fill-rule="evenodd"/>
<defs>
<filter color-interpolation-filters="sRGB" filterUnits="userSpaceOnUse" height="1153" width="1022" y="0" x="0" id="filter0_f_146_2671">
<feFlood result="BackgroundImageFix" flood-opacity="0"/>
<feBlend result="shape" in2="BackgroundImageFix" in="SourceGraphic" mode="normal"/>
<feGaussianBlur result="effect1_foregroundBlur_146_2671" stdDeviation="150"/>
</filter>
</defs>
</svg>