<svg width="28" height="32" viewBox="0 0 28 32" fill="none" xmlns="http://www.w3.org/2000/svg">
<path fill-rule="evenodd" clip-rule="evenodd" d="M14.5352 0C14.2058 0.00516515 13.8652 0.00516515 13.5131 0C11.8825 0.0121356 10.3762 0.413312 8.99442 1.20353C8.24814 1.63996 7.61159 2.19158 7.08473 2.85838C6.88591 3.15144 6.67966 3.43563 6.4661 3.71088C6.14678 4.33893 5.85984 4.97414 5.60539 5.61647C5.31436 6.56029 5.09919 7.51308 4.95987 8.47486C4.94195 8.70889 4.92398 8.94288 4.90607 9.17691C4.92253 9.32159 4.90462 9.45533 4.85228 9.57809C4.82828 10.4711 4.82828 11.3571 4.85228 12.2359C4.90435 12.3415 4.92231 12.4586 4.90607 12.5869C5.39715 15.743 6.90339 18.3841 9.42478 20.5102C9.45533 21.4056 9.30288 22.2748 8.96753 23.1178C8.70125 23.6 8.29779 23.9427 7.75716 24.1458C4.86271 25.218 3.28653 25.5552 0.335327 26.489C-0.862247 26.489 1.53285 28.0783 1.53285 28.0783C2.13169 28.6081 3.32921 29.1379 3.32921 29.1379C5.12563 30.1974 8.11956 30.9909 8.11956 30.9909C10.5147 31.7868 14.1074 32.3166 18.2989 31.7868C18.9476 31.7048 20.694 31.257 20.694 31.257C20.694 31.257 20.694 31.257 21.8917 30.7272C21.8539 30.7341 23.0892 30.1974 23.0892 30.1974L24.2868 29.6677C25.4843 29.1379 26.0831 28.6081 26.0831 28.6081C26.6819 28.0783 28.4783 26.6873 27.8795 26.489C24.8869 25.4979 23.4132 25.1941 20.4526 24.1458C19.989 23.9643 19.6035 23.6885 19.296 23.3184C18.8192 22.4344 18.6489 21.4984 18.785 20.5102C20.5987 18.9008 21.9256 16.9952 22.7657 14.7934C23.3458 12.9237 23.5251 11.0181 23.3037 9.07662C23.1609 7.86843 22.883 6.6816 22.4699 5.51618C21.1027 2.07664 18.4578 0.237898 14.5352 0Z" fill="#294548"/>
</svg>
