<svg width="23" height="16" viewBox="0 0 23 16" fill="none" xmlns="http://www.w3.org/2000/svg">
<path d="M22.878 14.4497C22.8502 14.3765 22.8242 14.3158 22.8001 14.2672C22.401 13.3909 21.6385 12.3153 20.5128 11.0401L20.489 11.0109L20.4772 10.9966L20.4651 10.9819H20.453C19.9421 10.3881 19.6186 9.98889 19.4831 9.78448C19.2353 9.3951 19.1798 9.00095 19.3152 8.6016C19.4109 8.29987 19.7705 7.66265 20.393 6.68911C20.7204 6.17314 20.9797 5.75962 21.1713 5.44808C22.5526 3.20915 23.1514 1.77843 22.9676 1.1554L22.8963 1.0098C22.8484 0.922145 22.7246 0.841957 22.5252 0.768826C22.3255 0.695849 22.0701 0.68378 21.7586 0.732415L18.3099 0.761462C18.254 0.737323 18.1742 0.739574 18.0704 0.768826C17.9665 0.798078 17.9145 0.812756 17.9145 0.812756L17.8545 0.849321L17.8069 0.893251C17.767 0.922298 17.7231 0.973389 17.6751 1.04642C17.6274 1.11919 17.5876 1.20459 17.5556 1.30191C17.1802 2.47973 16.7533 3.5748 16.2742 4.58708C15.9788 5.19068 15.7075 5.7138 15.4598 6.15673C15.2123 6.59951 15.0047 6.92572 14.8372 7.13484C14.6694 7.34415 14.518 7.51185 14.382 7.63852C14.2463 7.76525 14.1427 7.81879 14.0708 7.7992C13.9989 7.77962 13.9312 7.76019 13.867 7.74076C13.7553 7.65309 13.6655 7.53389 13.5978 7.38302C13.5297 7.23216 13.4839 7.04228 13.46 6.81352C13.4361 6.58462 13.4221 6.38772 13.4181 6.22218C13.4143 6.05686 13.416 5.82299 13.4241 5.52126C13.4324 5.21937 13.4361 5.01512 13.4361 4.90803C13.4361 4.53809 13.4421 4.13658 13.4539 3.70342C13.466 3.27025 13.4758 2.92706 13.4839 2.67422C13.4921 2.42112 13.4959 2.15336 13.4959 1.87106C13.4959 1.58876 13.4818 1.36737 13.4539 1.20669C13.4264 1.04621 13.3842 0.890438 13.3286 0.73942C13.2726 0.588557 13.1906 0.471853 13.0831 0.389006C12.9753 0.306261 12.8413 0.240596 12.6819 0.191809C12.2587 0.0750549 11.7199 0.0118965 11.0651 0.00207752C9.58027 -0.0173558 8.62619 0.0995509 8.20306 0.352646C8.03541 0.45958 7.8837 0.605688 7.74806 0.790509C7.60432 1.00474 7.58428 1.12164 7.68804 1.14087C8.16712 1.22838 8.50627 1.43769 8.70588 1.76862L8.77781 1.94399C8.83376 2.0705 8.88963 2.2945 8.94554 2.61567C9.00137 2.93682 9.0374 3.2921 9.05325 3.68127C9.0931 4.39197 9.0931 5.00034 9.05325 5.50642C9.01328 6.01272 8.97553 6.40685 8.9395 6.68915C8.90347 6.97144 8.84962 7.20019 8.77781 7.37535C8.70588 7.55057 8.65802 7.65765 8.63403 7.69652C8.61008 7.73539 8.59011 7.75988 8.57427 7.76949C8.47049 7.81797 8.36257 7.84268 8.25087 7.84268C8.13901 7.84268 8.00337 7.77445 7.84373 7.63812C7.68414 7.50177 7.51851 7.3145 7.34683 7.07598C7.17516 6.83741 6.98155 6.50402 6.76592 6.07577C6.55045 5.64752 6.32689 5.14138 6.09537 4.55737L5.90381 4.13382C5.78406 3.86133 5.62049 3.46459 5.41291 2.94393C5.20521 2.42306 5.02162 1.91923 4.86203 1.43252C4.79823 1.22812 4.70238 1.0725 4.57468 0.965411L4.51474 0.921481C4.47489 0.882614 4.41093 0.841343 4.32318 0.797363C4.23531 0.753433 4.14362 0.721931 4.04774 0.702547L0.766556 0.731596C0.431262 0.731596 0.203761 0.824211 0.0839705 1.00919L0.0360293 1.09669C0.0120797 1.14542 0 1.22326 0 1.3304C0 1.43748 0.0239496 1.56892 0.0718908 1.72453C0.550883 3.09715 1.07178 4.42092 1.63457 5.69605C2.19737 6.97119 2.68643 7.99835 3.10145 8.7766C3.51657 9.55542 3.9397 10.2905 4.37083 10.9814C4.80196 11.6725 5.08735 12.1155 5.22698 12.31C5.36677 12.505 5.47657 12.6507 5.5564 12.7481L5.85583 13.0984C6.04743 13.3321 6.32878 13.6119 6.70002 13.938C7.07135 14.2642 7.48243 14.5853 7.9335 14.9019C8.38463 15.2181 8.90948 15.476 9.50829 15.6755C10.107 15.8752 10.6898 15.9554 11.2567 15.9167H12.6339C12.9131 15.8872 13.1247 15.7802 13.2686 15.5954L13.3162 15.5222C13.3482 15.464 13.3783 15.3739 13.4059 15.2523C13.4339 15.1307 13.4478 14.9967 13.4478 14.8509C13.4397 14.4323 13.4658 14.0551 13.5256 13.7194C13.5853 13.3837 13.6532 13.1306 13.7294 12.9602C13.8054 12.7899 13.8912 12.6462 13.9867 12.5297C14.0824 12.4129 14.1506 12.3422 14.1906 12.3179C14.2304 12.2934 14.2622 12.2768 14.2861 12.2668C14.4777 12.189 14.7032 12.2643 14.9628 12.4933C15.2224 12.722 15.4659 13.0045 15.6934 13.3402C15.921 13.6762 16.1944 14.0532 16.5136 14.4716C16.8332 14.8903 17.1125 15.2014 17.3519 15.4061L17.5913 15.5814C17.7512 15.6982 17.9588 15.8053 18.2143 15.9026C18.4694 15.9999 18.6929 16.0243 18.8847 15.9757L21.9502 15.9174C22.2535 15.9174 22.4893 15.8561 22.6567 15.7347C22.8245 15.613 22.924 15.4789 22.9561 15.3332C22.9882 15.1873 22.9899 15.0217 22.9622 14.8364C22.9338 14.6518 22.9059 14.5226 22.878 14.4497Z" fill="#296986"/>
</svg>
