<svg width="23" height="14" viewBox="0 0 23 14" fill="none" xmlns="http://www.w3.org/2000/svg">
<path fill-rule="evenodd" clip-rule="evenodd" d="M20.9891 0.0364139C21.4042 0.0169838 21.8124 0.054169 22.2139 0.148081C22.2511 0.148081 22.2882 0.148081 22.3253 0.148081C22.3443 0.19487 22.3814 0.213518 22.4366 0.203915C22.548 0.352823 22.6779 0.483083 22.8264 0.59475C22.8322 0.717751 22.8692 0.829418 22.9377 0.929751C23.0367 1.40735 22.9996 1.87267 22.8264 2.32559C22.7283 2.36814 22.6726 2.44262 22.6593 2.54893C22.6008 2.58924 22.5637 2.64507 22.548 2.71643C22.427 2.73039 22.3342 2.78622 22.2696 2.88393C22.2511 2.88393 22.2325 2.88393 22.2139 2.88393C22.1289 2.87985 22.0733 2.91709 22.0469 2.99559C21.8527 3.01586 21.6578 3.03445 21.4623 3.05143C21.2432 3.03875 21.0298 3.00157 20.8221 2.93976C20.785 2.93976 20.7479 2.93976 20.7107 2.93976C20.6844 2.86126 20.6287 2.82402 20.5437 2.82809C20.5437 2.8095 20.5437 2.79085 20.5437 2.77226C20.5013 2.67388 20.427 2.61805 20.321 2.60476C20.3251 2.5195 20.288 2.46367 20.2097 2.43726C20.2067 2.31822 20.151 2.2438 20.0427 2.21392C19.8943 1.76625 19.8943 1.31958 20.0427 0.873918C20.0427 0.836677 20.0427 0.799492 20.0427 0.762251C20.0968 0.670739 20.171 0.596257 20.2653 0.538916C20.4872 0.341042 20.7284 0.173541 20.9891 0.0364139Z" fill="#294548"/>
<path fill-rule="evenodd" clip-rule="evenodd" d="M1.22483 0.00349745C6.34691 -0.00582676 11.469 0.00349745 16.591 0.0314142C16.8349 0.0477177 17.0762 0.0756345 17.3147 0.115165C17.3519 0.115165 17.3889 0.115165 17.4261 0.115165C17.4524 0.193667 17.5081 0.230908 17.5931 0.226832C17.6859 0.357092 17.7972 0.468759 17.9271 0.561833C17.9413 0.699575 17.997 0.811242 18.0942 0.896835C18.0942 0.915428 18.0942 0.934076 18.0942 0.952669C18.1361 1.22977 18.1547 1.50894 18.1498 1.79017C18.1136 1.89821 18.0951 2.00988 18.0942 2.12517C18.0942 2.16242 18.0942 2.1996 18.0942 2.23684C17.9242 2.4355 17.7386 2.63091 17.5374 2.82309C17.3692 2.88898 17.2022 2.95408 17.0363 3.01851C11.691 3.03604 6.34619 3.01745 1.00214 2.96268C0.983598 2.96268 0.965002 2.96268 0.946463 2.96268C0.920129 2.88418 0.864454 2.84694 0.77944 2.85101C0.742305 2.85101 0.705226 2.85101 0.668091 2.85101C0.593878 2.73934 0.501068 2.64627 0.38972 2.57184C0.393784 2.48659 0.356649 2.43075 0.278371 2.40434C0.262114 2.20524 0.187844 2.03774 0.0556736 1.90184C0.0378022 1.5933 0.0563419 1.29549 0.111348 1.0085C0.166577 0.899292 0.222251 0.787624 0.278371 0.673501C0.278371 0.63626 0.278371 0.599074 0.278371 0.561833C0.37118 0.487407 0.463934 0.412925 0.556743 0.338499C0.760565 0.195509 0.983265 0.083842 1.22483 0.00349745Z" fill="#294548"/>
<path fill-rule="evenodd" clip-rule="evenodd" d="M21.7687 5.44727C21.8243 5.44727 21.88 5.44727 21.9357 5.44727C21.9795 5.53683 22.0537 5.57407 22.1584 5.55894C22.2363 5.63655 22.3291 5.69238 22.4368 5.72644C22.5296 5.8567 22.6409 5.96837 22.7708 6.06144C22.7708 6.09868 22.7708 6.13587 22.7708 6.17311C22.8269 6.28723 22.8826 6.3989 22.9378 6.50811C22.975 6.50811 22.9935 6.5267 22.9935 6.56394C23.0163 6.98074 22.9792 7.39017 22.8822 7.79228C22.7478 7.87106 22.6549 7.98273 22.6038 8.12728C22.5296 8.18312 22.4553 8.23895 22.3811 8.29479C22.2624 8.2978 22.1882 8.35363 22.1584 8.46229C22.048 8.44314 21.9737 8.48038 21.9357 8.57395C21.6388 8.57395 21.3418 8.57395 21.0449 8.57395C20.9817 8.47831 20.8889 8.44107 20.7665 8.46229C20.7402 8.38378 20.6845 8.34654 20.5995 8.35062C20.5624 8.33203 20.5253 8.31338 20.4882 8.29479C20.4139 8.18312 20.3211 8.09004 20.2098 8.01562C20.2098 7.97838 20.2098 7.94119 20.2098 7.90395C20.2138 7.81869 20.1767 7.76286 20.0984 7.73645C20.0384 7.51099 19.9827 7.28766 19.9314 7.06645C19.9463 6.898 19.9649 6.7305 19.9871 6.56394C20.0448 6.4841 20.082 6.39103 20.0984 6.28478C20.1176 6.13414 20.1919 6.02247 20.3211 5.94977C20.4397 5.85893 20.5511 5.75659 20.6552 5.64269C21.0186 5.52516 21.3897 5.46006 21.7687 5.44727Z" fill="#294548"/>
<path fill-rule="evenodd" clip-rule="evenodd" d="M16.8759 5.5066C17.0153 5.5702 17.1637 5.60744 17.3213 5.61827C17.3637 5.71665 17.438 5.77248 17.544 5.78577C17.6368 5.91603 17.7482 6.0277 17.878 6.12077C17.8922 6.25851 17.9479 6.37018 18.0451 6.45577C18.0636 6.49302 18.0822 6.5302 18.1007 6.56744C18.1068 6.9413 18.0883 7.31355 18.0451 7.68411C17.9193 7.73124 17.8636 7.82431 17.878 7.96328C17.7683 8.09215 17.657 8.22246 17.544 8.35412C17.4888 8.34451 17.4517 8.36316 17.4326 8.40995C17.3392 8.39795 17.2835 8.43519 17.2656 8.52162C11.8096 8.59593 6.35351 8.59593 0.897367 8.52162C0.785072 8.46416 0.673724 8.40833 0.563321 8.35412C0.470512 8.24245 0.377759 8.13078 0.28495 8.01911C0.281943 7.90008 0.226269 7.82565 0.117927 7.79578C0.131344 7.66189 0.0942094 7.55022 0.00657801 7.46078C-0.0112935 7.15224 0.0072461 6.85443 0.0622523 6.56744C0.127614 6.51083 0.164693 6.4364 0.173601 6.34411C0.173601 6.32551 0.173601 6.30687 0.173601 6.28827C0.289793 6.22769 0.364007 6.13468 0.396298 6.00911C0.474855 5.87432 0.586204 5.78125 0.730344 5.72994C0.815359 5.73401 0.871033 5.69677 0.897367 5.61827C0.967294 5.62045 1.02297 5.59253 1.06439 5.53452C6.33486 5.5066 11.6054 5.49728 16.8759 5.5066Z" fill="#294548"/>
<path fill-rule="evenodd" clip-rule="evenodd" d="M17.0934 10.9815C17.1677 11.0001 17.2419 11.0187 17.3161 11.0373C17.3425 11.1158 17.3982 11.1531 17.4832 11.149C17.5022 11.1958 17.5393 11.2144 17.5945 11.2048C17.7658 11.3762 17.9143 11.5623 18.0399 11.7632C18.127 12.0913 18.1642 12.4263 18.1513 12.7682C18.1513 12.8612 18.1513 12.9543 18.1513 13.0473C18.0633 13.2016 17.9612 13.3505 17.845 13.494C17.6737 13.6382 17.516 13.7871 17.3718 13.9407C17.2537 13.9309 17.1424 13.9495 17.0378 13.9965C11.7672 14.0058 6.49673 13.9965 1.22626 13.9686C1.03045 13.8514 0.826295 13.7676 0.613842 13.7173C0.576707 13.6987 0.539628 13.6801 0.502493 13.6615C0.343432 13.4056 0.195004 13.145 0.0570987 12.8798C0.0501394 12.5614 0.068679 12.245 0.112773 11.9307C0.178135 11.874 0.215214 11.7996 0.224122 11.7073C0.224122 11.6701 0.224122 11.6329 0.224122 11.5957C0.372605 11.4467 0.521033 11.2979 0.669516 11.149C0.768728 11.0809 0.880077 11.0437 1.00356 11.0373C6.36561 10.982 11.7289 10.9634 17.0934 10.9815Z" fill="#294548"/>
<path fill-rule="evenodd" clip-rule="evenodd" d="M21.0403 10.9786C21.0775 10.9786 21.1145 10.9786 21.1517 10.9786C21.4335 10.966 21.7119 10.9846 21.9868 11.0345C22.1167 11.0717 22.2466 11.1089 22.3765 11.1461C22.3765 11.1647 22.3765 11.1834 22.3765 11.202C22.4864 11.3493 22.6163 11.4796 22.7662 11.5928C22.7622 11.678 22.7993 11.7339 22.8776 11.7603C22.9147 11.8905 22.9518 12.0209 22.9889 12.1511C22.9982 12.4124 22.9889 12.6729 22.9611 12.9328C22.8459 13.1318 22.7438 13.3365 22.6549 13.547C22.5408 13.6241 22.4481 13.7171 22.3765 13.8261C22.3023 13.8447 22.228 13.8634 22.1538 13.882C21.9236 13.892 21.7009 13.9291 21.4857 13.9936C21.3178 13.9787 21.1507 13.96 20.9847 13.9378C20.7051 13.8506 20.4639 13.7017 20.2609 13.4911C20.2287 13.3331 20.1544 13.2028 20.0382 13.1003C19.9701 12.6904 19.9701 12.2809 20.0382 11.872C20.1036 11.8153 20.1406 11.7409 20.1495 11.6486C20.2827 11.3848 20.4869 11.1987 20.762 11.0903C20.8843 11.1115 20.9771 11.0743 21.0403 10.9786Z" fill="#294548"/>
</svg>
