<svg width="24" height="24" viewBox="0 0 24 24" fill="none" xmlns="http://www.w3.org/2000/svg">
<g opacity="0.966">
<path fill-rule="evenodd" clip-rule="evenodd" d="M14.4382 0.00274992C17.9493 -0.0702424 20.6798 1.30986 22.6297 4.14307C24.0248 6.44604 24.3545 8.89105 23.6195 11.4781C22.7076 14.2214 20.8888 16.134 18.1628 17.2158C15.4299 18.1582 12.808 17.9239 10.2969 16.5129C7.86193 18.8894 5.43094 21.2705 3.00397 23.6563C2.41952 24.056 1.80308 24.1071 1.15469 23.8096C0.86657 23.6036 0.601759 23.3695 0.360285 23.1068C-0.00634029 22.6161 -0.093152 22.0794 0.0998237 21.4966C0.151916 21.3944 0.204008 21.2922 0.2561 21.1899C2.69071 18.7755 5.1347 16.3688 7.58808 13.9699C6.34298 12.2375 5.80036 10.3079 5.9602 8.18116C6.27692 5.22375 7.69644 2.93635 10.2187 1.31896C11.5176 0.543394 12.9241 0.104673 14.4382 0.00274992ZM14.5684 2.30293C17.3056 2.20392 19.4371 3.26031 20.9628 5.47206C22.0413 7.25054 22.2758 9.13328 21.666 11.1203C20.8914 13.235 19.4284 14.679 17.2772 15.4523C14.9173 16.1441 12.7555 15.7692 10.7918 14.3278C9.35198 13.1427 8.50548 11.6305 8.25226 9.79129C8.05738 7.09446 9.07751 4.96891 11.3127 3.41468C12.3044 2.77653 13.3897 2.40595 14.5684 2.30293Z" fill="#294548"/>
<path fill-rule="evenodd" clip-rule="evenodd" d="M14.5684 3.47857C16.3668 3.36374 17.9079 3.9175 19.1916 5.13981C19.3861 5.66551 19.1995 5.9083 18.6316 5.8682C18.5862 5.85617 18.5427 5.83912 18.5014 5.81709C17.3163 4.65425 15.8924 4.20272 14.2298 4.46254C13.2388 4.65471 12.3966 5.10623 11.7034 5.81709C11.35 5.97813 11.1025 5.88014 10.9611 5.52318C10.9317 5.37103 10.9664 5.23474 11.0652 5.11426C12.0397 4.17405 13.2074 3.62883 14.5684 3.47857Z" fill="#294548"/>
</g>
</svg>
