<svg width="7" height="12" viewBox="0 0 7 12" fill="none" xmlns="http://www.w3.org/2000/svg">
<path d="M0.39139 6.37641L5.97162 11.6788C6.06473 11.7673 6.18834 11.8166 6.31681 11.8164C6.44528 11.8163 6.56875 11.7666 6.66162 11.6779L6.66761 11.6719C6.71279 11.6288 6.74874 11.577 6.77327 11.5197C6.79781 11.4623 6.81042 11.4006 6.81033 11.3382C6.81025 11.2758 6.79747 11.214 6.77278 11.1567C6.74809 11.0994 6.712 11.0478 6.6667 11.0049L1.41189 6.01201L6.65308 1.00687C6.69826 0.963833 6.73421 0.912057 6.75874 0.854691C6.78328 0.797324 6.79589 0.735566 6.7958 0.673173C6.79572 0.61078 6.78294 0.549057 6.75825 0.491757C6.73355 0.434458 6.69746 0.382781 6.65217 0.339869L6.64616 0.333876C6.55305 0.245358 6.42945 0.196076 6.30097 0.196251C6.1725 0.196426 6.04903 0.246045 5.95616 0.334817L0.390404 5.65241C0.341455 5.69917 0.302512 5.75539 0.275936 5.81765C0.24936 5.87991 0.235704 5.94692 0.235797 6.01462C0.235889 6.08231 0.249727 6.14929 0.276473 6.21148C0.303219 6.27366 0.342314 6.32977 0.39139 6.37641Z" fill="#294548"/>
</svg>
