<svg width="23" height="25" viewBox="0 0 23 25" fill="none" xmlns="http://www.w3.org/2000/svg">
<path fill-rule="evenodd" clip-rule="evenodd" d="M11.3161 0C10.852 0 10.4069 0.184374 10.0787 0.512563C9.7505 0.840752 9.56612 1.28587 9.56612 1.75V1.925C7.58973 2.32843 5.81343 3.40232 4.53784 4.96492C3.26224 6.52752 2.56571 8.48286 2.56612 10.5V17.5L0.457372 19.824C-0.562878 20.9493 0.235123 22.75 1.75237 22.75H8.28512C8.59232 23.282 9.03415 23.7238 9.5662 24.031C10.0982 24.3381 10.7018 24.4998 11.3161 24.4998C11.9305 24.4998 12.534 24.3381 13.066 24.031C13.5981 23.7238 14.0399 23.282 14.3471 22.75H20.8799C22.3971 22.75 23.1951 20.9475 22.1749 19.824L20.0661 17.5V10.5C20.0665 8.48286 19.37 6.52752 18.0944 4.96492C16.8188 3.40232 15.0425 2.32843 13.0661 1.925V1.75C13.0661 1.28587 12.8817 0.840752 12.5536 0.512563C12.2254 0.184374 11.7803 0 11.3161 0ZM5.19112 18.515L4.50862 19.264L3.72812 20.125H18.9041L18.1219 19.264L17.4411 18.5133V10.5C17.4411 9.69565 17.2827 8.89918 16.9749 8.15606C16.6671 7.41294 16.2159 6.73773 15.6471 6.16897C15.0784 5.60021 14.4032 5.14905 13.6601 4.84124C12.9169 4.53343 12.1205 4.375 11.3161 4.375C10.5118 4.375 9.71531 4.53343 8.97219 4.84124C8.22907 5.14905 7.55385 5.60021 6.98509 6.16897C6.41633 6.73773 5.96517 7.41294 5.65736 8.15606C5.34955 8.89918 5.19112 9.69565 5.19112 10.5V18.515Z" fill="#294548"/>
</svg>
